:SAMPLES-PER-SECOND 30
:FULLY-SPECIFIED
:DEGREES
863
root  3.83082 41.0562 -1.88723 -68.1033 -88.4072 69.0496
RightUpLeg  -2.71355 -7.34832 -4.95597
RightLeg  6.26274 -2.42889 1.88745
RightFoot  -2.19841 0.195269 -2.63621
RightToes  -4.65663e-010 0 -3.6325e-017
Spine  -7.29343 -0.132335 -6.17729
Spine1  8.54109 -0.833622 5.6296
HEad  -5.79982 2.1262 0.214124
LeftShoulder1  2.60739 -4.84024 -24.9877
LeftArm  -13.4891 15.9262 -4.48083
LeftForeArm  17.7118 -9.55965 -3.28157
LeftHand  -0.244104 0.0205437 5.32207
RightShoulder  2.25202 4.4172 22.16
RightArm  -15.8932 -13.5078 7.22087
RightForeArm  -4.47821 4.16109 4.09262
RightHand  -1.26014 3.37382 -16.835
LeftUpLeg  -0.211915 5.58491 2.89629
LeftLeg  -0.565577 8.48474 -5.94803
LeftFoot  0.140019 -0.149954 1.48434
LeftToes  -7.27628e-011 -1.6005e-012 -1.37987e-011
864
root  3.55453 41.0751 -1.82909 -76.7645 -88.42 78.079
RightUpLeg  -2.47024 -7.47751 -5.16611
RightLeg  5.79671 -2.06718 2.01859
RightFoot  -2.20732 0.179833 -2.44139
RightToes  -4.65663e-010 0 -3.6325e-017
Spine  -7.58325 -0.389415 -6.07409
Spine1  8.0643 -0.935763 5.08167
HEad  -5.34728 2.75829 0.290746
LeftShoulder1  1.99459 -3.62377 -21.5156
LeftArm  -14.537 15.5334 -1.76
LeftForeArm  16.605 -11.2753 -3.01004
LeftHand  -0.244104 0.0205437 5.32207
RightShoulder  1.61492 3.15504 17.6755
RightArm  -15.7781 -11.7139 4.6331
RightForeArm  -5.48081 3.67792 4.18405
RightHand  -1.2428 3.19143 -16.9422
LeftUpLeg  0.0856277 5.43541 2.69431
LeftLeg  -1.04697 8.90703 -5.94076
LeftFoot  0.0273276 -0.160757 1.61293
LeftToes  -7.27628e-011 -1.6005e-012 -1.37987e-011
865
root  3.30579 41.082 -1.79633 -72.423 -88.4291 73.969
RightUpLeg  -2.10449 -7.52777 -5.22961
RightLeg  5.41073 -2.135 2.08231
RightFoot  -2.27668 0.171452 -2.3556
RightToes  -4.65663e-010 0 -3.6325e-017
Spine  -7.67892 -0.725057 -6.05333
Spine1  7.57525 -1.17442 4.74719
HEad  -4.90817 3.27651 0.39791
LeftShoulder1  1.41649 -2.26712 -17.8034
LeftArm  -16.0948 15.0192 -0.24712
LeftForeArm  16.7579 -13.4631 -2.75059
LeftHand  -0.244104 0.0205437 5.32207
RightShoulder  1.11624 1.92557 13.6376
RightArm  -15.822 -9.89662 2.65475
RightForeArm  -5.41852 3.74374 4.31014
RightHand  -1.04664 2.39482 -15.7132
LeftUpLeg  0.176578 5.30299 2.6191
LeftLeg  -1.02513 8.91796 -5.79117
LeftFoot  -0.290244 -0.13845 1.44961
LeftToes  -7.27628e-011 -1.6005e-012 -1.37987e-011
866
root  3.07747 41.0871 -1.7845 -67.115 -88.4656 68.7603
RightUpLeg  -1.6237 -7.48071 -5.19184
RightLeg  5.02002 -2.32786 2.0832
RightFoot  -2.35824 0.165424 -2.30889
RightToes  -4.65663e-010 0 -3.6325e-017
Spine  -7.77404 -0.961504 -6.09373
Spine1  7.30048 -1.3574 4.57673
HEad  -4.58857 3.53603 0.541946
LeftShoulder1  0.97268 -1.04274 -14.3806
LeftArm  -18.509 14.4776 0.516338
LeftForeArm  17.763 -16.0962 -2.62941
LeftHand  -0.244104 0.0205437 5.32207
RightShoulder  0.744963 0.742265 10.3052
RightArm  -16.3857 -8.0833 1.0424
RightForeArm  -5.48547 4.23748 4.38592
RightHand  -0.802513 1.19238 -14.2709
LeftUpLeg  0.372047 5.21457 2.61719
LeftLeg  -0.968924 8.847 -5.6235
LeftFoot  -0.45924 -0.130183 1.39646
LeftToes  -7.27628e-011 -1.6005e-012 -1.37987e-011
867
root  2.86819 41.0947 -1.78908 -64.8915 -88.4809 66.6139
RightUpLeg  -1.18769 -7.42248 -5.16171
RightLeg  4.67537 -2.47338 2.06775
RightFoot  -2.4512 0.157154 -2.23651
RightToes  -4.65663e-010 0 -3.6325e-017
Spine  -7.99203 -1.07704 -6.27201
Spine1  7.23841 -1.4665 4.6509
HEad  -4.30732 3.57918 0.517018
LeftShoulder1  0.74059 -0.30132 -12.2525
LeftArm  -20.9415 13.7219 1.68009
LeftForeArm  18.8989 -18.5764 -2.84613
LeftHand  -0.244104 0.0205437 5.32207
RightShoulder  0.497808 -0.242769 7.76629
RightArm  -17.529 -6.34796 -0.286913
RightForeArm  -6.13127 4.89811 4.35758
RightHand  -0.723232 0.602003 -14.0871
LeftUpLeg  0.672255 5.12531 2.60267
LeftLeg  -1.0763 8.86968 -5.49101
LeftFoot  -0.511376 -0.134373 1.44777
LeftToes  -7.27628e-011 -1.6005e-012 -1.37987e-011
868
root  2.68083 41.0992 -1.80057 -61.2462 -88.4189 63.0984
RightUpLeg  -0.89939 -7.41849 -5.17792
RightLeg  4.45991 -2.62841 2.07206
RightFoot  -2.58958 0.14957 -2.18252
RightToes  -4.65663e-010 0 -3.6325e-017
Spine  -8.33727 -1.13965 -6.44876
Spine1  7.29359 -1.54219 4.83065
HEad  -3.98943 3.54007 0.244938
LeftShoulder1  0.720494 -0.25631 -11.8753
LeftArm  -21.9909 12.4261 3.71438
LeftForeArm  19.548 -20.0271 -3.14784
LeftHand  -0.244104 0.0205437 5.32207
RightShoulder  0.358656 -0.874139 5.93469
RightArm  -18.8473 -5.00465 -1.21619
RightForeArm  -7.17634 5.624 4.29508
RightHand  -0.89769 1.42593 -15.3519
LeftUpLeg  0.916021 5.04324 2.57297
LeftLeg  -1.28201 8.81336 -5.42252
LeftFoot  -0.600832 -0.13147 1.41018
LeftToes  -7.27628e-011 -1.6005e-012 -1.37987e-011
869
root  2.5228 41.0968 -1.80982 -52.7255 -88.2119 54.7407
RightUpLeg  -0.733313 -7.47434 -5.23596
RightLeg  4.3901 -2.89361 2.09475
RightFoot  -2.77249 0.144565 -2.17977
RightToes  -4.65663e-010 0 -3.6325e-017
Spine  -8.68425 -1.20767 -6.50421
Spine1  7.3644 -1.61348 4.93236
HEad  -3.68814 3.44694 -0.0883455
LeftShoulder1  0.848189 -0.778586 -12.6022
LeftArm  -21.6823 10.7164 5.67687
LeftForeArm  19.5463 -20.2141 -3.23722
LeftHand  -0.244104 0.0205437 5.32207
RightShoulder  0.292981 -1.18326 4.78038
RightArm  -19.7909 -4.07885 -1.6569
RightForeArm  -8.10144 6.20954 4.29334
RightHand  -1.22939 3.124 -16.9016
LeftUpLeg  1.02628 4.98253 2.52794
LeftLeg  -1.45801 8.54073 -5.40957
LeftFoot  -0.663277 -0.128262 1.3712
LeftToes  -7.27628e-011 -1.6005e-012 -1.37987e-011
870
root  2.39768 41.0917 -1.82215 -41.9507 -87.7837 44.1053
RightUpLeg  -0.589647 -7.55689 -5.32089
RightLeg  4.3879 -3.34031 2.10658
RightFoot  -2.96127 0.14069 -2.19127
RightToes  -4.65663e-010 0 -3.6325e-017
Spine  -8.84383 -1.34248 -6.61247
Spine1  7.33169 -1.75134 5.02745
HEad  -3.46448 3.24413 -0.265014
LeftShoulder1  1.00541 -1.42383 -13.2991
LeftArm  -21.042 9.09538 6.22468
LeftForeArm  18.9577 -19.589 -3.18606
LeftHand  -0.244104 0.0205437 5.32207
RightShoulder  0.271033 -1.3049 4.43506
RightArm  -20.0559 -3.18429 -1.67846
RightForeArm  -8.50418 6.34165 4.38214
RightHand  -1.45172 4.27452 -17.5938
LeftUpLeg  1.05657 4.90658 2.44949
LeftLeg  -1.57012 8.08123 -5.39288
LeftFoot  -0.614674 -0.130066 1.41474
LeftToes  -7.27628e-011 -1.6005e-012 -1.37987e-011
871
root  2.29578 41.0895 -1.84931 -33.052 -87.178 35.3132
RightUpLeg  -0.390999 -7.6118 -5.37599
RightLeg  4.31567 -3.97325 2.09987
RightFoot  -3.10719 0.138524 -2.20999
RightToes  -4.65663e-010 0 -3.6325e-017
Spine  -8.77309 -1.57955 -6.92632
Spine1  7.14907 -2.00911 5.23588
HEad  -3.30538 2.9685 -0.249109
LeftShoulder1  1.10579 -1.87238 -13.4933
LeftArm  -20.252 7.81698 5.22162
LeftForeArm  18.1721 -18.4109 -3.09784
LeftHand  -0.244104 0.0205437 5.32207
RightShoulder  0.28633 -1.25634 4.89238
RightArm  -19.6682 -2.16194 -1.34234
RightForeArm  -8.19272 5.97973 4.53407
RightHand  -1.41535 4.23497 -17.2176
LeftUpLeg  1.07457 4.81052 2.38257
LeftLeg  -1.67496 7.49463 -5.33846
LeftFoot  -0.536044 -0.127722 1.39959
LeftToes  -7.27628e-011 -1.6005e-012 -1.37987e-011
872
root  2.20349 41.0896 -1.88801 -27.2848 -86.6002 29.6747
RightUpLeg  -0.186071 -7.61885 -5.36118
RightLeg  4.12474 -4.62178 2.11099
RightFoot  -3.19096 0.140189 -2.2711
RightToes  -4.65663e-010 0 -3.6325e-017
Spine  -8.65898 -1.84754 -7.3218
Spine1  6.93798 -2.31916 5.54058
HEad  -3.2677 2.73451 -0.171072
LeftShoulder1  1.19062 -2.24576 -13.6528
LeftArm  -18.7075 6.77367 3.84085
LeftForeArm  18.0654 -16.4214 -3.07658
LeftHand  -0.244104 0.0205437 5.32207
RightShoulder  0.342297 -0.97198 5.76977
RightArm  -18.9044 -1.31816 -0.649626
RightForeArm  -6.90919 5.36177 4.66717
RightHand  -1.24819 3.63312 -16.2142
LeftUpLeg  1.06322 4.74357 2.37889
LeftLeg  -1.79467 6.91492 -5.27559
LeftFoot  -0.509535 -0.118211 1.28003
LeftToes  -7.27628e-011 -1.6005e-012 -1.37987e-011
873
root  2.11923 41.0881 -1.92424 -24.5287 -86.2409 27.1201
RightUpLeg  -0.116756 -7.6234 -5.33052
RightLeg  3.94097 -5.0195 2.16209
RightFoot  -3.25283 0.144495 -2.35337
RightToes  -4.65663e-010 0 -3.6325e-017
Spine  -8.66776 -2.01812 -7.69039
Spine1  6.85626 -2.56709 5.98696
HEad  -3.55634 2.57716 -0.19349
LeftShoulder1  1.33339 -2.76648 -14.2726
LeftArm  -16.5828 5.88349 3.06987
LeftForeArm  18.9575 -13.479 -3.3492
LeftHand  -0.244104 0.0205437 5.32207
RightShoulder  0.426974 -0.513723 6.63333
RightArm  -18.0935 -0.862849 0.17924
RightForeArm  -4.62759 4.62802 4.69627
RightHand  -1.11411 3.2981 -15.0597
LeftUpLeg  0.968436 4.69478 2.38303
LeftLeg  -1.88445 6.5891 -5.2229
LeftFoot  -0.511828 -0.109614 1.18291
LeftToes  -7.27628e-011 -1.6005e-012 -1.37987e-011
874
root  2.04684 41.0845 -1.95519 -24.1433 -86.1214 26.981
RightUpLeg  -0.207493 -7.6473 -5.32905
RightLeg  3.86446 -5.10719 2.21652
RightFoot  -3.33379 0.146094 -2.39862
RightToes  -4.65663e-010 0 -3.6325e-017
Spine  -8.72442 -2.05538 -8.09008
Spine1  6.90796 -2.72967 6.6514
HEad  -4.28469 2.4757 -0.372613
LeftShoulder1  1.48737 -3.27406 -15.0353
LeftArm  -14.7668 5.25803 2.69783
LeftForeArm  19.5397 -10.0182 -3.85667
LeftHand  -0.244104 0.0205437 5.32207
RightShoulder  0.516303 -0.0571534 7.42215
RightArm  -17.3657 -0.602266 0.654758
RightForeArm  -2.15354 3.75187 4.65312
RightHand  -1.04427 3.33178 -14.0853
LeftUpLeg  0.817777 4.59923 2.33024
LeftLeg  -1.93093 6.61752 -5.14774
LeftFoot  -0.525957 -0.101665 1.10723
LeftToes  -7.27628e-011 -1.6005e-012 -1.37987e-011
875
root  1.97957 41.0822 -1.98853 -24.4634 -86.1432 27.5089
RightUpLeg  -0.284228 -7.62985 -5.28583
RightLeg  3.77728 -5.0933 2.2402
RightFoot  -3.39663 0.146188 -2.4206
RightToes  -4.65663e-010 0 -3.6325e-017
Spine  -8.66929 -2.0421 -8.46415
Spine1  6.96709 -2.85467 7.33254
HEad  -5.24504 2.46638 -0.611963
LeftShoulder1  1.52934 -3.41587 -15.2059
LeftArm  -13.489 5.04291 2.06737
LeftForeArm  18.1778 -6.6657 -4.12694
LeftHand  -0.244104 0.0205437 5.32207
RightShoulder  0.594456 0.283747 8.22625
RightArm  -16.7181 -0.349965 0.543143
RightForeArm  -0.699425 2.80494 4.64783
RightHand  -1.00128 3.34332 -13.5017
LeftUpLeg  0.714236 4.48271 2.29202
LeftLeg  -1.97048 6.79424 -5.03596
LeftFoot  -0.583397 -0.0864364 0.955499
LeftToes  -7.27628e-011 -1.6005e-012 -1.37987e-011
